<mxfile host="app.diagrams.net" agent="Mozilla/5.0 (Windows NT 10.0; Win64; x64) AppleWebKit/537.36 (KHTML, like Gecko) Chrome/128.0.0.0 Safari/537.36 OPR/114.0.0.0" version="25.0.3">
  <diagram name="PÃ¡gina-1" id="83-e-vLK0RrSAy_42U-P">
    <mxGraphModel grid="1" page="1" gridSize="10" guides="1" tooltips="1" connect="1" arrows="1" fold="1" pageScale="1" pageWidth="827" pageHeight="1169" math="0" shadow="0">
      <root>
        <mxCell id="0" />
        <mxCell id="1" parent="0" />
        <mxCell id="bnpsGYUVljuNiMo0iAkC-108" style="edgeStyle=none;rounded=0;orthogonalLoop=1;jettySize=auto;html=1;entryX=0.5;entryY=1;entryDx=0;entryDy=0;elbow=vertical;endArrow=none;endFill=0;" edge="1" parent="1" source="bnpsGYUVljuNiMo0iAkC-1" target="bnpsGYUVljuNiMo0iAkC-31">
          <mxGeometry relative="1" as="geometry" />
        </mxCell>
        <mxCell id="EFPWm55D8CAjVVxN8Ojo-2" style="rounded=0;orthogonalLoop=1;jettySize=auto;html=1;entryX=0.5;entryY=0;entryDx=0;entryDy=0;exitX=0.5;exitY=1;exitDx=0;exitDy=0;endArrow=none;endFill=0;edgeStyle=orthogonalEdgeStyle;" edge="1" parent="1" source="bnpsGYUVljuNiMo0iAkC-1" target="bnpsGYUVljuNiMo0iAkC-99">
          <mxGeometry relative="1" as="geometry" />
        </mxCell>
        <mxCell id="cyemS9l4sLs4LkQCBaB2-11" style="rounded=0;orthogonalLoop=1;jettySize=auto;html=1;entryX=0;entryY=0.5;entryDx=0;entryDy=0;endArrow=none;endFill=0;exitX=1;exitY=0.25;exitDx=0;exitDy=0;" edge="1" parent="1" source="bnpsGYUVljuNiMo0iAkC-1" target="cyemS9l4sLs4LkQCBaB2-3">
          <mxGeometry relative="1" as="geometry" />
        </mxCell>
        <mxCell id="cyemS9l4sLs4LkQCBaB2-12" style="rounded=0;orthogonalLoop=1;jettySize=auto;html=1;entryX=0;entryY=0.5;entryDx=0;entryDy=0;endArrow=none;endFill=0;exitX=1;exitY=0.5;exitDx=0;exitDy=0;" edge="1" parent="1" source="bnpsGYUVljuNiMo0iAkC-1" target="cyemS9l4sLs4LkQCBaB2-5">
          <mxGeometry relative="1" as="geometry" />
        </mxCell>
        <mxCell id="cyemS9l4sLs4LkQCBaB2-13" style="rounded=0;orthogonalLoop=1;jettySize=auto;html=1;entryX=0;entryY=0.5;entryDx=0;entryDy=0;endArrow=none;endFill=0;exitX=1;exitY=0.5;exitDx=0;exitDy=0;" edge="1" parent="1" source="bnpsGYUVljuNiMo0iAkC-1" target="cyemS9l4sLs4LkQCBaB2-4">
          <mxGeometry relative="1" as="geometry" />
        </mxCell>
        <mxCell id="cyemS9l4sLs4LkQCBaB2-14" style="rounded=0;orthogonalLoop=1;jettySize=auto;html=1;entryX=0;entryY=0.5;entryDx=0;entryDy=0;endArrow=none;endFill=0;exitX=1;exitY=0.5;exitDx=0;exitDy=0;" edge="1" parent="1" source="bnpsGYUVljuNiMo0iAkC-1" target="cyemS9l4sLs4LkQCBaB2-10">
          <mxGeometry relative="1" as="geometry" />
        </mxCell>
        <mxCell id="cyemS9l4sLs4LkQCBaB2-39" style="rounded=0;orthogonalLoop=1;jettySize=auto;html=1;entryX=0;entryY=0.5;entryDx=0;entryDy=0;endArrow=none;endFill=0;exitX=1;exitY=0.5;exitDx=0;exitDy=0;" edge="1" parent="1" source="bnpsGYUVljuNiMo0iAkC-1" target="cyemS9l4sLs4LkQCBaB2-38">
          <mxGeometry relative="1" as="geometry" />
        </mxCell>
        <mxCell id="bnpsGYUVljuNiMo0iAkC-1" value="Jugadores" style="rounded=0;whiteSpace=wrap;html=1;fillColor=#e1d5e7;strokeColor=#9673a6;" vertex="1" parent="1">
          <mxGeometry x="300" y="74" width="120" height="60" as="geometry" />
        </mxCell>
        <mxCell id="bnpsGYUVljuNiMo0iAkC-17" style="edgeStyle=orthogonalEdgeStyle;rounded=0;orthogonalLoop=1;jettySize=auto;html=1;entryX=0.5;entryY=0;entryDx=0;entryDy=0;endArrow=none;endFill=0;" edge="1" parent="1" source="bnpsGYUVljuNiMo0iAkC-2" target="bnpsGYUVljuNiMo0iAkC-16">
          <mxGeometry relative="1" as="geometry" />
        </mxCell>
        <mxCell id="EFPWm55D8CAjVVxN8Ojo-11" style="edgeStyle=orthogonalEdgeStyle;rounded=0;orthogonalLoop=1;jettySize=auto;html=1;entryX=1;entryY=0.5;entryDx=0;entryDy=0;endArrow=none;endFill=0;" edge="1" parent="1" source="bnpsGYUVljuNiMo0iAkC-2" target="EFPWm55D8CAjVVxN8Ojo-9">
          <mxGeometry relative="1" as="geometry" />
        </mxCell>
        <mxCell id="EFPWm55D8CAjVVxN8Ojo-21" style="rounded=0;orthogonalLoop=1;jettySize=auto;html=1;endArrow=none;endFill=0;" edge="1" parent="1" source="bnpsGYUVljuNiMo0iAkC-2" target="EFPWm55D8CAjVVxN8Ojo-19">
          <mxGeometry relative="1" as="geometry">
            <Array as="points" />
          </mxGeometry>
        </mxCell>
        <mxCell id="EFPWm55D8CAjVVxN8Ojo-47" style="rounded=0;orthogonalLoop=1;jettySize=auto;html=1;endArrow=none;endFill=0;" edge="1" parent="1" source="bnpsGYUVljuNiMo0iAkC-2" target="EFPWm55D8CAjVVxN8Ojo-45">
          <mxGeometry relative="1" as="geometry" />
        </mxCell>
        <mxCell id="EFPWm55D8CAjVVxN8Ojo-71" style="edgeStyle=orthogonalEdgeStyle;rounded=0;orthogonalLoop=1;jettySize=auto;html=1;entryX=0;entryY=0.5;entryDx=0;entryDy=0;endArrow=none;endFill=0;" edge="1" parent="1" source="bnpsGYUVljuNiMo0iAkC-2" target="EFPWm55D8CAjVVxN8Ojo-70">
          <mxGeometry relative="1" as="geometry">
            <Array as="points">
              <mxPoint x="-10" y="104" />
              <mxPoint x="-10" y="104" />
            </Array>
          </mxGeometry>
        </mxCell>
        <mxCell id="bnpsGYUVljuNiMo0iAkC-2" value="Equipos" style="rounded=0;whiteSpace=wrap;html=1;fillColor=#e1d5e7;strokeColor=#9673a6;" vertex="1" parent="1">
          <mxGeometry x="-170" y="68" width="120" height="60" as="geometry" />
        </mxCell>
        <mxCell id="bnpsGYUVljuNiMo0iAkC-18" style="edgeStyle=orthogonalEdgeStyle;rounded=0;orthogonalLoop=1;jettySize=auto;html=1;entryX=0.5;entryY=1;entryDx=0;entryDy=0;endArrow=none;endFill=0;" edge="1" parent="1" source="bnpsGYUVljuNiMo0iAkC-3" target="bnpsGYUVljuNiMo0iAkC-16">
          <mxGeometry relative="1" as="geometry" />
        </mxCell>
        <mxCell id="EFPWm55D8CAjVVxN8Ojo-22" style="rounded=0;orthogonalLoop=1;jettySize=auto;html=1;endArrow=none;endFill=0;" edge="1" parent="1" source="bnpsGYUVljuNiMo0iAkC-3" target="EFPWm55D8CAjVVxN8Ojo-20">
          <mxGeometry relative="1" as="geometry" />
        </mxCell>
        <mxCell id="EFPWm55D8CAjVVxN8Ojo-51" style="rounded=0;orthogonalLoop=1;jettySize=auto;html=1;endArrow=none;endFill=0;entryX=0.5;entryY=0;entryDx=0;entryDy=0;" edge="1" parent="1" source="bnpsGYUVljuNiMo0iAkC-3" target="EFPWm55D8CAjVVxN8Ojo-48">
          <mxGeometry relative="1" as="geometry">
            <mxPoint x="-155" y="594" as="targetPoint" />
          </mxGeometry>
        </mxCell>
        <mxCell id="cyemS9l4sLs4LkQCBaB2-46" style="rounded=0;orthogonalLoop=1;jettySize=auto;html=1;endArrow=none;endFill=0;entryX=0.5;entryY=0;entryDx=0;entryDy=0;" edge="1" parent="1" source="bnpsGYUVljuNiMo0iAkC-3" target="cyemS9l4sLs4LkQCBaB2-45">
          <mxGeometry relative="1" as="geometry" />
        </mxCell>
        <mxCell id="bnpsGYUVljuNiMo0iAkC-3" value="Torneos" style="rounded=0;whiteSpace=wrap;html=1;fillColor=#e1d5e7;strokeColor=#9673a6;" vertex="1" parent="1">
          <mxGeometry x="-170" y="468" width="120" height="60" as="geometry" />
        </mxCell>
        <mxCell id="EFPWm55D8CAjVVxN8Ojo-12" style="edgeStyle=orthogonalEdgeStyle;rounded=0;orthogonalLoop=1;jettySize=auto;html=1;entryX=0;entryY=0.5;entryDx=0;entryDy=0;endArrow=none;endFill=0;" edge="1" parent="1" source="bnpsGYUVljuNiMo0iAkC-4" target="EFPWm55D8CAjVVxN8Ojo-9">
          <mxGeometry relative="1" as="geometry" />
        </mxCell>
        <mxCell id="bnpsGYUVljuNiMo0iAkC-4" value="Patrocinadores" style="rounded=0;whiteSpace=wrap;html=1;fillColor=#e1d5e7;strokeColor=#9673a6;" vertex="1" parent="1">
          <mxGeometry x="-655" y="67.5" width="120" height="60" as="geometry" />
        </mxCell>
        <mxCell id="EFPWm55D8CAjVVxN8Ojo-38" style="rounded=0;orthogonalLoop=1;jettySize=auto;html=1;entryX=0;entryY=0.5;entryDx=0;entryDy=0;endArrow=none;endFill=0;" edge="1" parent="1" source="bnpsGYUVljuNiMo0iAkC-6" target="bnpsGYUVljuNiMo0iAkC-51">
          <mxGeometry relative="1" as="geometry" />
        </mxCell>
        <mxCell id="bnpsGYUVljuNiMo0iAkC-6" value="ID Administativo" style="ellipse;whiteSpace=wrap;html=1;fillColor=#6a00ff;fontColor=#ffffff;strokeColor=#3700CC;rotation=0;" vertex="1" parent="1">
          <mxGeometry x="-165" y="-541" width="85" height="80" as="geometry" />
        </mxCell>
        <mxCell id="y8rLnEhPT8bitqkZ80da-15" style="edgeStyle=orthogonalEdgeStyle;rounded=0;orthogonalLoop=1;jettySize=auto;html=1;endArrow=none;endFill=0;" edge="1" parent="1" source="bnpsGYUVljuNiMo0iAkC-16" target="bnpsGYUVljuNiMo0iAkC-110">
          <mxGeometry relative="1" as="geometry" />
        </mxCell>
        <mxCell id="bnpsGYUVljuNiMo0iAkC-16" value="Incluyen" style="rhombus;whiteSpace=wrap;html=1;fillColor=#fff2cc;strokeColor=#d6b656;" vertex="1" parent="1">
          <mxGeometry x="-150" y="198" width="80" height="80" as="geometry" />
        </mxCell>
        <mxCell id="bnpsGYUVljuNiMo0iAkC-19" value="(1,1&lt;span style=&quot;background-color: initial;&quot;&gt;,N)&lt;/span&gt;" style="text;html=1;align=center;verticalAlign=middle;resizable=0;points=[];autosize=1;strokeColor=none;fillColor=none;" vertex="1" parent="1">
          <mxGeometry x="-115" y="438" width="60" height="30" as="geometry" />
        </mxCell>
        <mxCell id="bnpsGYUVljuNiMo0iAkC-20" value="(1,1,1)" style="text;html=1;align=center;verticalAlign=middle;resizable=0;points=[];autosize=1;strokeColor=none;fillColor=none;" vertex="1" parent="1">
          <mxGeometry x="-115" y="128" width="60" height="30" as="geometry" />
        </mxCell>
        <mxCell id="EFPWm55D8CAjVVxN8Ojo-25" style="rounded=0;orthogonalLoop=1;jettySize=auto;html=1;entryX=0.5;entryY=1;entryDx=0;entryDy=0;endArrow=none;endFill=0;" edge="1" parent="1" source="bnpsGYUVljuNiMo0iAkC-27" target="EFPWm55D8CAjVVxN8Ojo-23">
          <mxGeometry relative="1" as="geometry" />
        </mxCell>
        <mxCell id="EFPWm55D8CAjVVxN8Ojo-26" style="rounded=0;orthogonalLoop=1;jettySize=auto;html=1;endArrow=none;endFill=0;" edge="1" parent="1" source="bnpsGYUVljuNiMo0iAkC-27" target="EFPWm55D8CAjVVxN8Ojo-43">
          <mxGeometry relative="1" as="geometry">
            <mxPoint x="415" y="-266" as="targetPoint" />
          </mxGeometry>
        </mxCell>
        <mxCell id="y8rLnEhPT8bitqkZ80da-24" style="rounded=0;orthogonalLoop=1;jettySize=auto;html=1;endArrow=none;endFill=0;" edge="1" parent="1" source="bnpsGYUVljuNiMo0iAkC-27" target="y8rLnEhPT8bitqkZ80da-22">
          <mxGeometry relative="1" as="geometry" />
        </mxCell>
        <mxCell id="bnpsGYUVljuNiMo0iAkC-27" value="EstadÃ­sticas&lt;br&gt;Jugadores" style="shape=process;whiteSpace=wrap;html=1;backgroundOutline=1;fillColor=#e1d5e7;strokeColor=#9673a6;" vertex="1" parent="1">
          <mxGeometry x="300" y="-216" width="120" height="60" as="geometry" />
        </mxCell>
        <mxCell id="bnpsGYUVljuNiMo0iAkC-33" style="edgeStyle=orthogonalEdgeStyle;rounded=0;orthogonalLoop=1;jettySize=auto;html=1;endArrow=none;endFill=0;" edge="1" parent="1" source="bnpsGYUVljuNiMo0iAkC-31" target="bnpsGYUVljuNiMo0iAkC-27">
          <mxGeometry relative="1" as="geometry" />
        </mxCell>
        <mxCell id="bnpsGYUVljuNiMo0iAkC-31" value="Tienen" style="rhombus;whiteSpace=wrap;html=1;fillColor=#fff2cc;strokeColor=#d6b656;" vertex="1" parent="1">
          <mxGeometry x="320" y="-72" width="80" height="80" as="geometry" />
        </mxCell>
        <mxCell id="bnpsGYUVljuNiMo0iAkC-48" value="(1,1)" style="text;html=1;align=center;verticalAlign=middle;resizable=0;points=[];autosize=1;strokeColor=none;fillColor=none;" vertex="1" parent="1">
          <mxGeometry x="320" y="44" width="50" height="30" as="geometry" />
        </mxCell>
        <mxCell id="y8rLnEhPT8bitqkZ80da-3" value="" style="rounded=0;orthogonalLoop=1;jettySize=auto;html=1;endArrow=none;endFill=0;" edge="1" parent="1" source="bnpsGYUVljuNiMo0iAkC-110" target="EFPWm55D8CAjVVxN8Ojo-59">
          <mxGeometry relative="1" as="geometry">
            <mxPoint x="-480" y="218.638989093723" as="sourcePoint" />
          </mxGeometry>
        </mxCell>
        <mxCell id="bnpsGYUVljuNiMo0iAkC-114" value="(1,N)" style="text;html=1;align=center;verticalAlign=middle;resizable=0;points=[];autosize=1;strokeColor=none;fillColor=none;" vertex="1" parent="1">
          <mxGeometry x="350" y="138" width="50" height="30" as="geometry" />
        </mxCell>
        <mxCell id="bnpsGYUVljuNiMo0iAkC-49" value="(1,1)" style="text;html=1;align=center;verticalAlign=middle;resizable=0;points=[];autosize=1;strokeColor=none;fillColor=none;" vertex="1" parent="1">
          <mxGeometry x="320" y="-156" width="50" height="30" as="geometry" />
        </mxCell>
        <mxCell id="bnpsGYUVljuNiMo0iAkC-65" style="edgeStyle=none;rounded=0;orthogonalLoop=1;jettySize=auto;html=1;entryX=0;entryY=0.5;entryDx=0;entryDy=0;elbow=vertical;endArrow=none;endFill=0;" edge="1" parent="1" source="cyemS9l4sLs4LkQCBaB2-34" target="bnpsGYUVljuNiMo0iAkC-52">
          <mxGeometry relative="1" as="geometry" />
        </mxCell>
        <mxCell id="EFPWm55D8CAjVVxN8Ojo-42" style="rounded=0;orthogonalLoop=1;jettySize=auto;html=1;endArrow=none;endFill=0;exitX=0;exitY=0.5;exitDx=0;exitDy=0;" edge="1" parent="1" source="bnpsGYUVljuNiMo0iAkC-51" target="EFPWm55D8CAjVVxN8Ojo-41">
          <mxGeometry relative="1" as="geometry" />
        </mxCell>
        <mxCell id="bnpsGYUVljuNiMo0iAkC-51" value="Administrativos" style="rounded=0;whiteSpace=wrap;html=1;fillColor=#e1d5e7;strokeColor=#9673a6;" vertex="1" parent="1">
          <mxGeometry x="11" y="-376" width="120" height="60" as="geometry" />
        </mxCell>
        <mxCell id="bnpsGYUVljuNiMo0iAkC-68" style="edgeStyle=none;rounded=0;orthogonalLoop=1;jettySize=auto;html=1;entryX=0;entryY=0.5;entryDx=0;entryDy=0;elbow=vertical;endArrow=none;endFill=0;" edge="1" parent="1" source="bnpsGYUVljuNiMo0iAkC-52" target="bnpsGYUVljuNiMo0iAkC-67">
          <mxGeometry relative="1" as="geometry" />
        </mxCell>
        <mxCell id="bnpsGYUVljuNiMo0iAkC-72" style="edgeStyle=none;rounded=0;orthogonalLoop=1;jettySize=auto;html=1;elbow=vertical;endArrow=none;endFill=0;entryX=0.5;entryY=1;entryDx=0;entryDy=0;" edge="1" parent="1" source="bnpsGYUVljuNiMo0iAkC-52" target="bnpsGYUVljuNiMo0iAkC-70">
          <mxGeometry relative="1" as="geometry" />
        </mxCell>
        <mxCell id="bnpsGYUVljuNiMo0iAkC-73" style="edgeStyle=none;rounded=0;orthogonalLoop=1;jettySize=auto;html=1;entryX=0.5;entryY=1;entryDx=0;entryDy=0;elbow=vertical;endArrow=none;endFill=0;" edge="1" parent="1" source="bnpsGYUVljuNiMo0iAkC-52" target="bnpsGYUVljuNiMo0iAkC-69">
          <mxGeometry relative="1" as="geometry" />
        </mxCell>
        <mxCell id="bnpsGYUVljuNiMo0iAkC-74" style="edgeStyle=none;rounded=0;orthogonalLoop=1;jettySize=auto;html=1;entryX=0.5;entryY=1;entryDx=0;entryDy=0;elbow=vertical;endArrow=none;endFill=0;" edge="1" parent="1" source="bnpsGYUVljuNiMo0iAkC-52" target="bnpsGYUVljuNiMo0iAkC-71">
          <mxGeometry relative="1" as="geometry" />
        </mxCell>
        <mxCell id="bnpsGYUVljuNiMo0iAkC-52" value="" style="triangle;whiteSpace=wrap;html=1;rotation=-90;fillColor=#e1d5e7;strokeColor=#9673a6;" vertex="1" parent="1">
          <mxGeometry x="51" y="-556" width="40" height="110" as="geometry" />
        </mxCell>
        <mxCell id="bnpsGYUVljuNiMo0iAkC-63" style="edgeStyle=orthogonalEdgeStyle;rounded=0;orthogonalLoop=1;jettySize=auto;html=1;entryX=1;entryY=0.25;entryDx=0;entryDy=0;elbow=vertical;endArrow=none;endFill=0;exitX=0.5;exitY=1;exitDx=0;exitDy=0;" edge="1" parent="1" source="bnpsGYUVljuNiMo0iAkC-53" target="bnpsGYUVljuNiMo0iAkC-2">
          <mxGeometry relative="1" as="geometry">
            <Array as="points">
              <mxPoint x="69" y="83" />
            </Array>
          </mxGeometry>
        </mxCell>
        <mxCell id="bnpsGYUVljuNiMo0iAkC-64" style="edgeStyle=none;rounded=0;orthogonalLoop=1;jettySize=auto;html=1;entryX=0.5;entryY=1;entryDx=0;entryDy=0;elbow=vertical;endArrow=none;endFill=0;" edge="1" parent="1" source="bnpsGYUVljuNiMo0iAkC-53" target="bnpsGYUVljuNiMo0iAkC-51">
          <mxGeometry relative="1" as="geometry" />
        </mxCell>
        <mxCell id="bnpsGYUVljuNiMo0iAkC-53" value="Tiene" style="rhombus;whiteSpace=wrap;html=1;fillColor=#fff2cc;strokeColor=#d6b656;" vertex="1" parent="1">
          <mxGeometry x="28.63" y="-266" width="80" height="80" as="geometry" />
        </mxCell>
        <mxCell id="bnpsGYUVljuNiMo0iAkC-67" value="Tipo" style="ellipse;whiteSpace=wrap;html=1;aspect=fixed;fillColor=#e1d5e7;strokeColor=#9673a6;" vertex="1" parent="1">
          <mxGeometry x="200" y="-541" width="80" height="80" as="geometry" />
        </mxCell>
        <mxCell id="bnpsGYUVljuNiMo0iAkC-69" value="Analista" style="rounded=0;whiteSpace=wrap;html=1;fillColor=#e1d5e7;strokeColor=#9673a6;" vertex="1" parent="1">
          <mxGeometry x="180" y="-730" width="120" height="60" as="geometry" />
        </mxCell>
        <mxCell id="bnpsGYUVljuNiMo0iAkC-71" value="Administrador" style="rounded=0;whiteSpace=wrap;html=1;fillColor=#e1d5e7;strokeColor=#9673a6;" vertex="1" parent="1">
          <mxGeometry x="11" y="-730" width="120" height="60" as="geometry" />
        </mxCell>
        <mxCell id="bnpsGYUVljuNiMo0iAkC-75" value="" style="endArrow=none;html=1;rounded=0;elbow=vertical;edgeStyle=orthogonalEdgeStyle;curved=1;" edge="1" parent="1">
          <mxGeometry width="50" height="50" relative="1" as="geometry">
            <mxPoint x="-29" y="-516" as="sourcePoint" />
            <mxPoint x="171" y="-516" as="targetPoint" />
            <Array as="points">
              <mxPoint x="-29" y="-556" />
              <mxPoint x="171" y="-556" />
            </Array>
          </mxGeometry>
        </mxCell>
        <mxCell id="bnpsGYUVljuNiMo0iAkC-77" value="(1,1)" style="text;html=1;align=center;verticalAlign=middle;resizable=0;points=[];autosize=1;strokeColor=none;fillColor=none;" vertex="1" parent="1">
          <mxGeometry x="65" y="-456" width="50" height="30" as="geometry" />
        </mxCell>
        <mxCell id="bnpsGYUVljuNiMo0iAkC-80" value="(0,1)" style="text;html=1;align=center;verticalAlign=middle;resizable=0;points=[];autosize=1;strokeColor=none;fillColor=none;" vertex="1" parent="1">
          <mxGeometry x="-130" y="-670" width="50" height="30" as="geometry" />
        </mxCell>
        <mxCell id="bnpsGYUVljuNiMo0iAkC-81" value="(0,1)" style="text;html=1;align=center;verticalAlign=middle;resizable=0;points=[];autosize=1;strokeColor=none;fillColor=none;" vertex="1" parent="1">
          <mxGeometry x="31" y="-670" width="50" height="30" as="geometry" />
        </mxCell>
        <mxCell id="bnpsGYUVljuNiMo0iAkC-92" value="(0,1)" style="text;html=1;align=center;verticalAlign=middle;resizable=0;points=[];autosize=1;strokeColor=none;fillColor=none;" vertex="1" parent="1">
          <mxGeometry x="230" y="-670" width="50" height="30" as="geometry" />
        </mxCell>
        <mxCell id="bnpsGYUVljuNiMo0iAkC-93" value="(1,1)" style="text;html=1;align=center;verticalAlign=middle;resizable=0;points=[];autosize=1;strokeColor=none;fillColor=none;" vertex="1" parent="1">
          <mxGeometry x="-52.5" y="58" width="50" height="30" as="geometry" />
        </mxCell>
        <mxCell id="bnpsGYUVljuNiMo0iAkC-96" value="(1,N)" style="text;html=1;align=center;verticalAlign=middle;resizable=0;points=[];autosize=1;strokeColor=none;fillColor=none;" vertex="1" parent="1">
          <mxGeometry x="71" y="-316" width="50" height="30" as="geometry" />
        </mxCell>
        <mxCell id="bnpsGYUVljuNiMo0iAkC-101" style="edgeStyle=orthogonalEdgeStyle;rounded=0;orthogonalLoop=1;jettySize=auto;html=1;elbow=vertical;entryX=1;entryY=0.5;entryDx=0;entryDy=0;exitX=0.5;exitY=1;exitDx=0;exitDy=0;endArrow=none;endFill=0;" edge="1" parent="1" source="bnpsGYUVljuNiMo0iAkC-99" target="bnpsGYUVljuNiMo0iAkC-3">
          <mxGeometry relative="1" as="geometry">
            <mxPoint x="-250" y="228" as="targetPoint" />
            <Array as="points">
              <mxPoint x="25" y="498" />
            </Array>
          </mxGeometry>
        </mxCell>
        <mxCell id="bnpsGYUVljuNiMo0iAkC-99" value="Practicipan" style="rhombus;whiteSpace=wrap;html=1;fillColor=#fff2cc;strokeColor=#d6b656;" vertex="1" parent="1">
          <mxGeometry x="-15" y="198" width="80" height="80" as="geometry" />
        </mxCell>
        <mxCell id="bnpsGYUVljuNiMo0iAkC-104" value="" style="curved=1;endArrow=none;html=1;rounded=0;elbow=vertical;endFill=0;startArrow=classic;startFill=1;" edge="1" parent="1">
          <mxGeometry width="50" height="50" relative="1" as="geometry">
            <mxPoint x="-150" y="370" as="sourcePoint" />
            <mxPoint x="60" y="370" as="targetPoint" />
            <Array as="points">
              <mxPoint x="-100" y="335" />
              <mxPoint x="10" y="339" />
            </Array>
          </mxGeometry>
        </mxCell>
        <mxCell id="bnpsGYUVljuNiMo0iAkC-106" value="(1,N)" style="text;html=1;align=center;verticalAlign=middle;resizable=0;points=[];autosize=1;strokeColor=none;fillColor=none;" vertex="1" parent="1">
          <mxGeometry x="-65" y="309" width="50" height="30" as="geometry" />
        </mxCell>
        <mxCell id="bnpsGYUVljuNiMo0iAkC-70" value="Entrenador" style="rounded=0;whiteSpace=wrap;html=1;fillColor=#e1d5e7;strokeColor=#9673a6;" vertex="1" parent="1">
          <mxGeometry x="-157.38" y="-730" width="120" height="60" as="geometry" />
        </mxCell>
        <mxCell id="bnpsGYUVljuNiMo0iAkC-110" value="Resultados&lt;br&gt;Torneo" style="shape=process;whiteSpace=wrap;html=1;backgroundOutline=1;fillColor=#e1d5e7;strokeColor=#9673a6;" vertex="1" parent="1">
          <mxGeometry x="-355" y="208" width="120" height="60" as="geometry" />
        </mxCell>
        <mxCell id="EFPWm55D8CAjVVxN8Ojo-9" value="Tienen" style="rhombus;whiteSpace=wrap;html=1;fillColor=#fff2cc;strokeColor=#d6b656;" vertex="1" parent="1">
          <mxGeometry x="-420" y="58" width="80" height="80" as="geometry" />
        </mxCell>
        <mxCell id="EFPWm55D8CAjVVxN8Ojo-14" value="(1,N)" style="text;html=1;align=center;verticalAlign=middle;resizable=0;points=[];autosize=1;strokeColor=none;fillColor=none;" vertex="1" parent="1">
          <mxGeometry x="-220" y="68" width="50" height="30" as="geometry" />
        </mxCell>
        <mxCell id="EFPWm55D8CAjVVxN8Ojo-15" value="(1,N)" style="text;html=1;align=center;verticalAlign=middle;resizable=0;points=[];autosize=1;strokeColor=none;fillColor=none;" vertex="1" parent="1">
          <mxGeometry x="-545" y="67.5" width="50" height="30" as="geometry" />
        </mxCell>
        <mxCell id="EFPWm55D8CAjVVxN8Ojo-18" value="(1,N)" style="text;html=1;align=center;verticalAlign=middle;resizable=0;points=[];autosize=1;strokeColor=none;fillColor=none;" vertex="1" parent="1">
          <mxGeometry x="-50" y="498" width="50" height="30" as="geometry" />
        </mxCell>
        <mxCell id="EFPWm55D8CAjVVxN8Ojo-19" value="ID Equipo" style="ellipse;whiteSpace=wrap;html=1;fillColor=#6a00ff;fontColor=#ffffff;strokeColor=#3700CC;rotation=0;" vertex="1" parent="1">
          <mxGeometry x="-210" y="-64.5" width="85" height="80" as="geometry" />
        </mxCell>
        <mxCell id="EFPWm55D8CAjVVxN8Ojo-20" value="ID Torneo" style="ellipse;whiteSpace=wrap;html=1;fillColor=#6a00ff;fontColor=#ffffff;strokeColor=#3700CC;rotation=0;" vertex="1" parent="1">
          <mxGeometry x="-327.5" y="524" width="85" height="80" as="geometry" />
        </mxCell>
        <mxCell id="EFPWm55D8CAjVVxN8Ojo-23" value="Porcentaje Victorias" style="ellipse;whiteSpace=wrap;html=1;aspect=fixed;dashed=1;fillColor=#e1d5e7;strokeColor=#9673a6;" vertex="1" parent="1">
          <mxGeometry x="370" y="-376" width="80" height="80" as="geometry" />
        </mxCell>
        <mxCell id="EFPWm55D8CAjVVxN8Ojo-40" style="rounded=0;orthogonalLoop=1;jettySize=auto;html=1;entryX=0;entryY=0.5;entryDx=0;entryDy=0;endArrow=none;endFill=0;" edge="1" parent="1" source="EFPWm55D8CAjVVxN8Ojo-30" target="bnpsGYUVljuNiMo0iAkC-51">
          <mxGeometry relative="1" as="geometry" />
        </mxCell>
        <mxCell id="EFPWm55D8CAjVVxN8Ojo-30" value="Nombre" style="ellipse;whiteSpace=wrap;html=1;fillColor=#e1d5e7;strokeColor=#9673a6;" vertex="1" parent="1">
          <mxGeometry x="-162.5" y="-337" width="80" height="80" as="geometry" />
        </mxCell>
        <mxCell id="EFPWm55D8CAjVVxN8Ojo-39" style="rounded=0;orthogonalLoop=1;jettySize=auto;html=1;entryX=0;entryY=0.5;entryDx=0;entryDy=0;endArrow=none;endFill=0;" edge="1" parent="1" source="EFPWm55D8CAjVVxN8Ojo-31" target="bnpsGYUVljuNiMo0iAkC-51">
          <mxGeometry relative="1" as="geometry" />
        </mxCell>
        <mxCell id="EFPWm55D8CAjVVxN8Ojo-31" value="Apellidos" style="ellipse;whiteSpace=wrap;html=1;fillColor=#e1d5e7;strokeColor=#9673a6;" vertex="1" parent="1">
          <mxGeometry x="-162.5" y="-437" width="80" height="80" as="geometry" />
        </mxCell>
        <mxCell id="EFPWm55D8CAjVVxN8Ojo-36" style="rounded=0;orthogonalLoop=1;jettySize=auto;html=1;entryX=0;entryY=0.5;entryDx=0;entryDy=0;endArrow=none;endFill=0;" edge="1" parent="1" source="EFPWm55D8CAjVVxN8Ojo-32" target="EFPWm55D8CAjVVxN8Ojo-31">
          <mxGeometry relative="1" as="geometry" />
        </mxCell>
        <mxCell id="EFPWm55D8CAjVVxN8Ojo-32" value="Primer Apellido" style="ellipse;whiteSpace=wrap;html=1;fillColor=#e1d5e7;strokeColor=#9673a6;" vertex="1" parent="1">
          <mxGeometry x="-287.5" y="-481" width="80" height="80" as="geometry" />
        </mxCell>
        <mxCell id="EFPWm55D8CAjVVxN8Ojo-37" style="rounded=0;orthogonalLoop=1;jettySize=auto;html=1;endArrow=none;endFill=0;entryX=0;entryY=0.5;entryDx=0;entryDy=0;" edge="1" parent="1" source="EFPWm55D8CAjVVxN8Ojo-33" target="EFPWm55D8CAjVVxN8Ojo-31">
          <mxGeometry relative="1" as="geometry" />
        </mxCell>
        <mxCell id="EFPWm55D8CAjVVxN8Ojo-33" value="Segundo Apellido" style="ellipse;whiteSpace=wrap;html=1;fillColor=#e1d5e7;strokeColor=#9673a6;" vertex="1" parent="1">
          <mxGeometry x="-287.5" y="-381" width="80" height="80" as="geometry" />
        </mxCell>
        <mxCell id="EFPWm55D8CAjVVxN8Ojo-41" value="Fecha Ingreso" style="ellipse;whiteSpace=wrap;html=1;fillColor=#e1d5e7;strokeColor=#9673a6;" vertex="1" parent="1">
          <mxGeometry x="-162.5" y="-241" width="80" height="80" as="geometry" />
        </mxCell>
        <mxCell id="EFPWm55D8CAjVVxN8Ojo-43" value="Torneos Jugados" style="ellipse;shape=doubleEllipse;whiteSpace=wrap;html=1;aspect=fixed;fillColor=#e1d5e7;strokeColor=#9673a6;" vertex="1" parent="1">
          <mxGeometry x="470" y="-316" width="80" height="80" as="geometry" />
        </mxCell>
        <mxCell id="EFPWm55D8CAjVVxN8Ojo-45" value="Juego" style="ellipse;whiteSpace=wrap;html=1;fillColor=#e1d5e7;strokeColor=#9673a6;" vertex="1" parent="1">
          <mxGeometry x="-95" y="-64.5" width="80" height="80" as="geometry" />
        </mxCell>
        <mxCell id="EFPWm55D8CAjVVxN8Ojo-48" value="Juego" style="ellipse;whiteSpace=wrap;html=1;fillColor=#e1d5e7;strokeColor=#9673a6;" vertex="1" parent="1">
          <mxGeometry x="-287.5" y="620" width="80" height="80" as="geometry" />
        </mxCell>
        <mxCell id="EFPWm55D8CAjVVxN8Ojo-49" value="Nombre Torneo" style="ellipse;whiteSpace=wrap;html=1;fillColor=#e1d5e7;strokeColor=#9673a6;" vertex="1" parent="1">
          <mxGeometry x="-205" y="690" width="80" height="80" as="geometry" />
        </mxCell>
        <mxCell id="EFPWm55D8CAjVVxN8Ojo-52" style="rounded=0;orthogonalLoop=1;jettySize=auto;html=1;endArrow=none;endFill=0;entryX=0.5;entryY=0;entryDx=0;entryDy=0;" edge="1" parent="1" source="bnpsGYUVljuNiMo0iAkC-3" target="EFPWm55D8CAjVVxN8Ojo-49">
          <mxGeometry relative="1" as="geometry" />
        </mxCell>
        <mxCell id="EFPWm55D8CAjVVxN8Ojo-59" value="ClasificaciÃ³n" style="ellipse;whiteSpace=wrap;html=1;fillColor=#e1d5e7;strokeColor=#9673a6;" vertex="1" parent="1">
          <mxGeometry x="-335" y="314" width="80" height="80" as="geometry" />
        </mxCell>
        <mxCell id="EFPWm55D8CAjVVxN8Ojo-61" value="(1,1)" style="text;html=1;align=center;verticalAlign=middle;resizable=0;points=[];autosize=1;strokeColor=none;fillColor=none;" vertex="1" parent="1">
          <mxGeometry x="400" y="-47" width="50" height="30" as="geometry" />
        </mxCell>
        <mxCell id="EFPWm55D8CAjVVxN8Ojo-62" value="(N,M)" style="text;html=1;align=center;verticalAlign=middle;resizable=0;points=[];autosize=1;strokeColor=none;fillColor=none;" vertex="1" parent="1">
          <mxGeometry x="65" y="223" width="50" height="30" as="geometry" />
        </mxCell>
        <mxCell id="EFPWm55D8CAjVVxN8Ojo-63" value="(1,N)" style="text;html=1;align=center;verticalAlign=middle;resizable=0;points=[];autosize=1;strokeColor=none;fillColor=none;" vertex="1" parent="1">
          <mxGeometry x="-80" y="223" width="50" height="30" as="geometry" />
        </mxCell>
        <mxCell id="EFPWm55D8CAjVVxN8Ojo-66" value="(N,M)" style="text;html=1;align=center;verticalAlign=middle;resizable=0;points=[];autosize=1;strokeColor=none;fillColor=none;" vertex="1" parent="1">
          <mxGeometry x="-405" y="34" width="50" height="30" as="geometry" />
        </mxCell>
        <mxCell id="EFPWm55D8CAjVVxN8Ojo-67" value="(1,N)" style="text;html=1;align=center;verticalAlign=middle;resizable=0;points=[];autosize=1;strokeColor=none;fillColor=none;" vertex="1" parent="1">
          <mxGeometry x="111" y="-241" width="50" height="30" as="geometry" />
        </mxCell>
        <mxCell id="EFPWm55D8CAjVVxN8Ojo-72" style="edgeStyle=orthogonalEdgeStyle;rounded=0;orthogonalLoop=1;jettySize=auto;html=1;entryX=0;entryY=0.5;entryDx=0;entryDy=0;endArrow=none;endFill=0;" edge="1" parent="1" source="EFPWm55D8CAjVVxN8Ojo-70" target="bnpsGYUVljuNiMo0iAkC-1">
          <mxGeometry relative="1" as="geometry" />
        </mxCell>
        <mxCell id="EFPWm55D8CAjVVxN8Ojo-70" value="Tiene" style="rhombus;whiteSpace=wrap;html=1;fillColor=#fff2cc;strokeColor=#d6b656;" vertex="1" parent="1">
          <mxGeometry x="97.63" y="64" width="80" height="80" as="geometry" />
        </mxCell>
        <mxCell id="EFPWm55D8CAjVVxN8Ojo-73" value="(1,1)" style="text;html=1;align=center;verticalAlign=middle;resizable=0;points=[];autosize=1;strokeColor=none;fillColor=none;" vertex="1" parent="1">
          <mxGeometry x="-55" y="104" width="50" height="30" as="geometry" />
        </mxCell>
        <mxCell id="EFPWm55D8CAjVVxN8Ojo-74" value="(1,N)" style="text;html=1;align=center;verticalAlign=middle;resizable=0;points=[];autosize=1;strokeColor=none;fillColor=none;" vertex="1" parent="1">
          <mxGeometry x="260" y="104" width="50" height="30" as="geometry" />
        </mxCell>
        <mxCell id="EFPWm55D8CAjVVxN8Ojo-75" value="(1,N)" style="text;html=1;align=center;verticalAlign=middle;resizable=0;points=[];autosize=1;strokeColor=none;fillColor=none;" vertex="1" parent="1">
          <mxGeometry x="112.63" y="38" width="50" height="30" as="geometry" />
        </mxCell>
        <mxCell id="cyemS9l4sLs4LkQCBaB2-3" value="ID Jugador" style="ellipse;whiteSpace=wrap;html=1;fillColor=#6a00ff;fontColor=#ffffff;strokeColor=#3700CC;rotation=0;" vertex="1" parent="1">
          <mxGeometry x="480" y="-188.5" width="85" height="80" as="geometry" />
        </mxCell>
        <mxCell id="cyemS9l4sLs4LkQCBaB2-4" value="Nombre" style="ellipse;whiteSpace=wrap;html=1;fillColor=#e1d5e7;strokeColor=#9673a6;" vertex="1" parent="1">
          <mxGeometry x="482.5" y="15.5" width="80" height="80" as="geometry" />
        </mxCell>
        <mxCell id="cyemS9l4sLs4LkQCBaB2-5" value="Apellidos" style="ellipse;whiteSpace=wrap;html=1;fillColor=#e1d5e7;strokeColor=#9673a6;" vertex="1" parent="1">
          <mxGeometry x="482.5" y="-84.5" width="80" height="80" as="geometry" />
        </mxCell>
        <mxCell id="cyemS9l4sLs4LkQCBaB2-6" style="rounded=0;orthogonalLoop=1;jettySize=auto;html=1;entryX=1;entryY=0.5;entryDx=0;entryDy=0;endArrow=none;endFill=0;exitX=0;exitY=0.5;exitDx=0;exitDy=0;" edge="1" parent="1" source="cyemS9l4sLs4LkQCBaB2-7" target="cyemS9l4sLs4LkQCBaB2-5">
          <mxGeometry relative="1" as="geometry" />
        </mxCell>
        <mxCell id="cyemS9l4sLs4LkQCBaB2-7" value="Primer Apellido" style="ellipse;whiteSpace=wrap;html=1;fillColor=#e1d5e7;strokeColor=#9673a6;" vertex="1" parent="1">
          <mxGeometry x="610" y="-138.5" width="80" height="80" as="geometry" />
        </mxCell>
        <mxCell id="cyemS9l4sLs4LkQCBaB2-8" style="rounded=0;orthogonalLoop=1;jettySize=auto;html=1;endArrow=none;endFill=0;entryX=1;entryY=0.5;entryDx=0;entryDy=0;exitX=0;exitY=0.5;exitDx=0;exitDy=0;" edge="1" parent="1" source="cyemS9l4sLs4LkQCBaB2-9" target="cyemS9l4sLs4LkQCBaB2-5">
          <mxGeometry relative="1" as="geometry">
            <mxPoint x="522.5" y="-32.5" as="targetPoint" />
          </mxGeometry>
        </mxCell>
        <mxCell id="cyemS9l4sLs4LkQCBaB2-9" value="Segundo Apellido" style="ellipse;whiteSpace=wrap;html=1;fillColor=#e1d5e7;strokeColor=#9673a6;" vertex="1" parent="1">
          <mxGeometry x="610" y="-34.5" width="80" height="80" as="geometry" />
        </mxCell>
        <mxCell id="cyemS9l4sLs4LkQCBaB2-10" value="Fecha Ingreso" style="ellipse;whiteSpace=wrap;html=1;fillColor=#e1d5e7;strokeColor=#9673a6;" vertex="1" parent="1">
          <mxGeometry x="482.5" y="111.5" width="80" height="80" as="geometry" />
        </mxCell>
        <mxCell id="cyemS9l4sLs4LkQCBaB2-21" value="(1,1,1)" style="text;html=1;align=center;verticalAlign=middle;resizable=0;points=[];autosize=1;strokeColor=none;fillColor=none;" vertex="1" parent="1">
          <mxGeometry x="-242.5" y="239" width="60" height="30" as="geometry" />
        </mxCell>
        <mxCell id="cyemS9l4sLs4LkQCBaB2-28" style="rounded=0;orthogonalLoop=1;jettySize=auto;html=1;endArrow=none;endFill=0;" edge="1" parent="1" source="cyemS9l4sLs4LkQCBaB2-26" target="bnpsGYUVljuNiMo0iAkC-4">
          <mxGeometry relative="1" as="geometry" />
        </mxCell>
        <mxCell id="cyemS9l4sLs4LkQCBaB2-26" value="ID Patrocinador" style="ellipse;whiteSpace=wrap;html=1;fillColor=#6a00ff;fontColor=#ffffff;strokeColor=#3700CC;" vertex="1" parent="1">
          <mxGeometry x="-742.5" y="-72" width="80" height="80" as="geometry" />
        </mxCell>
        <mxCell id="cyemS9l4sLs4LkQCBaB2-30" style="rounded=0;orthogonalLoop=1;jettySize=auto;html=1;endArrow=none;endFill=0;" edge="1" parent="1" source="cyemS9l4sLs4LkQCBaB2-29" target="bnpsGYUVljuNiMo0iAkC-4">
          <mxGeometry relative="1" as="geometry" />
        </mxCell>
        <mxCell id="cyemS9l4sLs4LkQCBaB2-29" value="Presupuesto" style="ellipse;whiteSpace=wrap;html=1;fillColor=#e1d5e7;strokeColor=#9673a6;" vertex="1" parent="1">
          <mxGeometry x="-527.5" y="-72" width="80" height="80" as="geometry" />
        </mxCell>
        <mxCell id="cyemS9l4sLs4LkQCBaB2-31" value="E" style="text;html=1;align=center;verticalAlign=middle;resizable=0;points=[];autosize=1;strokeColor=none;fillColor=none;" vertex="1" parent="1">
          <mxGeometry x="345" y="-72" width="30" height="30" as="geometry" />
        </mxCell>
        <mxCell id="y8rLnEhPT8bitqkZ80da-18" value="" style="rounded=0;orthogonalLoop=1;jettySize=auto;html=1;endArrow=none;endFill=0;" edge="1" parent="1" source="bnpsGYUVljuNiMo0iAkC-3" target="y8rLnEhPT8bitqkZ80da-17">
          <mxGeometry relative="1" as="geometry" />
        </mxCell>
        <mxCell id="y8rLnEhPT8bitqkZ80da-21" value="" style="rounded=0;orthogonalLoop=1;jettySize=auto;html=1;endArrow=none;endFill=0;" edge="1" parent="1" source="bnpsGYUVljuNiMo0iAkC-3" target="y8rLnEhPT8bitqkZ80da-20">
          <mxGeometry relative="1" as="geometry" />
        </mxCell>
        <mxCell id="y8rLnEhPT8bitqkZ80da-17" value="Fecha Inicio" style="ellipse;whiteSpace=wrap;html=1;fillColor=#e1d5e7;strokeColor=#9673a6;" vertex="1" parent="1">
          <mxGeometry x="-24.5" y="610" width="80" height="80" as="geometry" />
        </mxCell>
        <mxCell id="y8rLnEhPT8bitqkZ80da-20" value="Fecha Final" style="ellipse;whiteSpace=wrap;html=1;fillColor=#e1d5e7;strokeColor=#9673a6;" vertex="1" parent="1">
          <mxGeometry x="14.999999999999996" y="524" width="80" height="80" as="geometry" />
        </mxCell>
        <mxCell id="cyemS9l4sLs4LkQCBaB2-33" value="E" style="text;html=1;align=center;verticalAlign=middle;resizable=0;points=[];autosize=1;strokeColor=none;fillColor=none;" vertex="1" parent="1">
          <mxGeometry x="-125" y="198" width="30" height="30" as="geometry" />
        </mxCell>
        <mxCell id="cyemS9l4sLs4LkQCBaB2-35" value="" style="edgeStyle=none;rounded=0;orthogonalLoop=1;jettySize=auto;html=1;entryX=0.5;entryY=1;entryDx=0;entryDy=0;elbow=vertical;endArrow=none;endFill=0;" edge="1" parent="1" source="bnpsGYUVljuNiMo0iAkC-51" target="cyemS9l4sLs4LkQCBaB2-34">
          <mxGeometry relative="1" as="geometry">
            <mxPoint x="71" y="-376" as="sourcePoint" />
            <mxPoint x="71" y="-481" as="targetPoint" />
          </mxGeometry>
        </mxCell>
        <mxCell id="cyemS9l4sLs4LkQCBaB2-34" value="" style="ellipse;whiteSpace=wrap;html=1;aspect=fixed;fillColor=#e1d5e7;strokeColor=#9673a6;" vertex="1" parent="1">
          <mxGeometry x="55.5" y="-481" width="31" height="31" as="geometry" />
        </mxCell>
        <mxCell id="cyemS9l4sLs4LkQCBaB2-37" style="rounded=0;orthogonalLoop=1;jettySize=auto;html=1;endArrow=none;endFill=0;" edge="1" parent="1" source="cyemS9l4sLs4LkQCBaB2-36" target="bnpsGYUVljuNiMo0iAkC-27">
          <mxGeometry relative="1" as="geometry" />
        </mxCell>
        <mxCell id="cyemS9l4sLs4LkQCBaB2-36" value="Victorias" style="ellipse;whiteSpace=wrap;html=1;fillColor=#e1d5e7;strokeColor=#9673a6;" vertex="1" parent="1">
          <mxGeometry x="265" y="-376" width="80" height="80" as="geometry" />
        </mxCell>
        <mxCell id="y8rLnEhPT8bitqkZ80da-22" value="Partidos Totales" style="ellipse;whiteSpace=wrap;html=1;fillColor=#e1d5e7;strokeColor=#9673a6;" vertex="1" parent="1">
          <mxGeometry x="180" y="-306" width="80" height="80" as="geometry" />
        </mxCell>
        <mxCell id="cyemS9l4sLs4LkQCBaB2-38" value="Apodo" style="ellipse;whiteSpace=wrap;html=1;fillColor=#e1d5e7;strokeColor=#9673a6;" vertex="1" parent="1">
          <mxGeometry x="480" y="206.5" width="80" height="80" as="geometry" />
        </mxCell>
        <mxCell id="cyemS9l4sLs4LkQCBaB2-42" style="rounded=0;orthogonalLoop=1;jettySize=auto;html=1;endArrow=none;endFill=0;entryX=1;entryY=0.75;entryDx=0;entryDy=0;exitX=0;exitY=0.5;exitDx=0;exitDy=0;" edge="1" parent="1" source="cyemS9l4sLs4LkQCBaB2-41" target="bnpsGYUVljuNiMo0iAkC-1">
          <mxGeometry relative="1" as="geometry">
            <mxPoint x="410" y="150" as="targetPoint" />
          </mxGeometry>
        </mxCell>
        <mxCell id="cyemS9l4sLs4LkQCBaB2-41" value="Edad" style="ellipse;whiteSpace=wrap;html=1;fillColor=#e1d5e7;strokeColor=#9673a6;" vertex="1" parent="1">
          <mxGeometry x="480" y="300" width="80" height="80" as="geometry" />
        </mxCell>
        <mxCell id="cyemS9l4sLs4LkQCBaB2-44" style="edgeStyle=orthogonalEdgeStyle;rounded=0;orthogonalLoop=1;jettySize=auto;html=1;endArrow=none;endFill=0;" edge="1" parent="1" source="cyemS9l4sLs4LkQCBaB2-43" target="bnpsGYUVljuNiMo0iAkC-1">
          <mxGeometry relative="1" as="geometry" />
        </mxCell>
        <mxCell id="cyemS9l4sLs4LkQCBaB2-43" value="Nacinalidad" style="ellipse;whiteSpace=wrap;html=1;fillColor=#e1d5e7;strokeColor=#9673a6;" vertex="1" parent="1">
          <mxGeometry x="580" y="64" width="80" height="80" as="geometry" />
        </mxCell>
        <mxCell id="cyemS9l4sLs4LkQCBaB2-45" value="Localizacion" style="ellipse;whiteSpace=wrap;html=1;fillColor=#e1d5e7;strokeColor=#9673a6;" vertex="1" parent="1">
          <mxGeometry x="-104.5" y="690" width="80" height="80" as="geometry" />
        </mxCell>
        <mxCell id="y8rLnEhPT8bitqkZ80da-28" value="" style="endArrow=none;html=1;rounded=0;curved=1;" edge="1" parent="1">
          <mxGeometry width="50" height="50" relative="1" as="geometry">
            <mxPoint x="20" y="130" as="sourcePoint" />
            <mxPoint x="20" y="60" as="targetPoint" />
            <Array as="points">
              <mxPoint x="40" y="100" />
            </Array>
          </mxGeometry>
        </mxCell>
        <mxCell id="8iLgamqlXV7OS78li0XX-2" style="rounded=0;orthogonalLoop=1;jettySize=auto;html=1;endArrow=none;endFill=0;" edge="1" parent="1" source="8iLgamqlXV7OS78li0XX-1" target="bnpsGYUVljuNiMo0iAkC-4">
          <mxGeometry relative="1" as="geometry" />
        </mxCell>
        <mxCell id="8iLgamqlXV7OS78li0XX-1" value="Presupuesto" style="ellipse;whiteSpace=wrap;html=1;fillColor=#e1d5e7;strokeColor=#9673a6;" vertex="1" parent="1">
          <mxGeometry x="-632.5" y="-80" width="80" height="80" as="geometry" />
        </mxCell>
      </root>
    </mxGraphModel>
  </diagram>
</mxfile>
